<?xml version="1.0" standalone="no"?>
<!DOCTYPE svg PUBLIC "-//W3C//DTD SVG 20010904//EN"
 "http://www.w3.org/TR/2001/REC-SVG-20010904/DTD/svg10.dtd">
<svg version="1.0" xmlns="http://www.w3.org/2000/svg"
 width="256.000000pt" height="58.000000pt" viewBox="0 0 256.000000 58.000000"
 preserveAspectRatio="xMidYMid meet">

<g transform="translate(0.000000,58.000000) scale(0.100000,-0.100000)"
fill="#000000" stroke="none">
<path d="M0 290 l0 -290 1280 0 1280 0 0 290 0 290 -1280 0 -1280 0 0 -290z
m356 145 c133 -39 179 -199 86 -299 -112 -119 -312 -39 -312 125 0 80 52 149
131 174 24 8 44 14 45 14 0 1 23 -6 50 -14z m391 -112 c7 -9 13 -20 13 -25 0
-14 -31 -9 -47 7 -21 22 -45 15 -61 -17 -19 -40 -1 -78 37 -78 16 0 31 6 35
15 3 9 0 15 -9 15 -8 0 -15 7 -15 15 0 10 11 15 35 15 41 0 47 -22 15 -63 -26
-33 -63 -41 -99 -23 -33 17 -41 34 -41 82 0 52 40 88 88 80 20 -3 43 -13 49
-23z m933 12 c17 -9 30 -22 30 -29 0 -23 -26 -26 -43 -5 -22 25 -42 24 -61 -3
-21 -30 -20 -54 4 -78 21 -21 46 -18 67 9 9 13 14 14 24 3 21 -20 -22 -56 -67
-56 -48 0 -74 31 -74 89 0 35 5 48 26 64 32 25 55 26 94 6z m90 -70 c0 -78 -2
-85 -20 -85 -18 0 -20 7 -20 85 0 78 2 85 20 85 18 0 20 -7 20 -85z m60 70 c0
-8 -9 -15 -20 -15 -20 0 -26 11 -13 23 12 13 33 7 33 -8z m-800 -15 c0 -17 4
-19 25 -14 41 10 65 -19 65 -78 0 -41 -3 -48 -19 -48 -17 0 -20 8 -23 48 -2
34 -7 47 -18 47 -11 0 -16 -13 -18 -47 -3 -40 -6 -48 -23 -48 -17 0 -19 7 -19
80 0 64 3 80 15 80 8 0 15 -9 15 -20z m1200 0 c0 -13 7 -20 20 -20 11 0 20 -4
20 -10 0 -5 -9 -10 -20 -10 -16 0 -20 -7 -20 -36 0 -27 5 -37 20 -41 32 -9 23
-25 -12 -21 -32 3 -33 5 -36 51 -2 33 -7 47 -18 47 -19 0 -18 16 1 24 8 3 15
12 15 21 0 8 7 15 15 15 8 0 15 -9 15 -20z m-1268 -27 c13 -11 18 -30 18 -63
0 -48 0 -48 -37 -53 -41 -5 -83 14 -83 38 0 18 39 45 64 45 15 0 17 3 8 12 -8
8 -15 8 -27 -2 -13 -10 -18 -11 -28 -1 -9 10 -8 15 7 27 26 19 55 18 78 -3z
m270 0 c13 -11 18 -30 18 -63 0 -48 0 -48 -37 -53 -41 -5 -83 14 -83 38 0 18
39 45 64 45 15 0 17 3 8 12 -8 8 -15 8 -27 -2 -13 -10 -18 -11 -28 -1 -9 10
-8 15 7 27 26 19 55 18 78 -3z m248 -3 c11 -11 20 -29 20 -40 0 -17 -7 -20
-46 -20 -30 0 -43 -4 -38 -11 4 -6 20 -8 39 -5 38 7 53 -5 29 -25 -21 -17 -72
-16 -91 4 -24 24 -21 76 6 99 30 23 56 23 81 -2z m465 10 c4 -7 12 -7 25 0 44
23 70 -3 70 -71 0 -42 -3 -49 -20 -49 -17 0 -20 7 -20 44 0 41 -13 66 -27 52
-3 -3 -8 -25 -10 -51 -8 -62 -31 -61 -35 3 -2 34 -7 47 -18 47 -11 0 -16 -13
-18 -47 -2 -34 -7 -48 -18 -48 -11 0 -14 14 -14 59 0 54 2 60 23 64 40 8 56 7
62 -3z m207 -7 c13 -11 18 -30 18 -63 0 -48 0 -48 -37 -53 -41 -5 -83 14 -83
38 0 18 39 45 64 45 15 0 17 3 8 12 -8 8 -15 8 -27 -2 -13 -10 -18 -11 -28 -1
-9 10 -8 15 7 27 26 19 55 18 78 -3z m198 1 c0 -9 9 -18 20 -21 11 -3 20 -9
20 -14 0 -5 -9 -9 -20 -9 -13 0 -20 -7 -20 -20 0 -11 -7 -20 -15 -20 -8 0 -15
9 -15 20 0 13 -7 20 -20 20 -11 0 -20 5 -20 10 0 6 9 10 20 10 13 0 20 7 20
20 0 11 7 20 15 20 8 0 15 -7 15 -16z m-1490 -8 c0 -7 -9 -16 -20 -19 -16 -4
-20 -14 -20 -46 0 -34 -3 -41 -20 -41 -18 0 -20 7 -20 60 l0 60 40 0 c27 0 40
-4 40 -14z m441 -23 l13 -38 14 38 c10 24 21 37 33 37 18 0 18 -2 -2 -52 -12
-29 -27 -69 -34 -88 -6 -19 -19 -36 -28 -38 -18 -4 -20 11 -8 43 5 13 0 38
-16 73 -28 63 -28 62 -4 62 14 0 23 -12 32 -37z m529 -23 c0 -53 -2 -60 -20
-60 -18 0 -20 7 -20 60 0 53 2 60 20 60 18 0 20 -7 20 -60z"/>
<path d="M205 365 c-19 -20 -35 -40 -35 -45 0 -4 -3 -15 -6 -24 -5 -13 1 -16
29 -16 31 0 35 3 41 33 3 17 13 44 20 60 22 40 -4 36 -49 -8z"/>
<path d="M370 358 c11 -24 20 -51 20 -60 0 -14 8 -18 36 -18 32 0 35 2 28 23
-10 33 -33 64 -59 81 -39 26 -45 19 -25 -26z"/>
<path d="M280 348 c-29 -64 -27 -68 30 -68 33 0 50 4 50 13 -1 22 -39 97 -50
97 -6 0 -20 -19 -30 -42z"/>
<path d="M166 218 c4 -13 13 -33 21 -45 15 -22 62 -57 68 -51 2 2 -2 22 -10
43 -8 22 -14 48 -15 58 0 13 -9 17 -36 17 -32 0 -35 -2 -28 -22z"/>
<path d="M260 228 c1 -23 39 -98 50 -98 11 0 49 75 50 98 0 8 -17 12 -50 12
-33 0 -50 -4 -50 -12z"/>
<path d="M385 203 c-3 -21 -13 -48 -21 -60 -17 -27 -4 -30 31 -7 26 17 49 48
59 82 7 20 4 22 -27 22 -32 0 -35 -3 -42 -37z"/>
<path d="M905 219 c-4 -6 -4 -13 -1 -16 8 -8 36 5 36 17 0 13 -27 13 -35 -1z"/>
<path d="M1175 219 c-4 -6 -4 -13 -1 -16 8 -8 36 5 36 17 0 13 -27 13 -35 -1z"/>
<path d="M1425 270 c-3 -5 3 -10 15 -10 12 0 18 5 15 10 -3 6 -10 10 -15 10
-5 0 -12 -4 -15 -10z"/>
<path d="M2095 219 c-4 -6 -4 -13 -1 -16 8 -8 36 5 36 17 0 13 -27 13 -35 -1z"/>
</g>
</svg>
